# xmcd
#
# Track frame offsets:
#	150
#	26300
#	47342
#	75195
#
# Disc length: 1364 seconds
#
# Revision: 1
# Processed by: cddbd v1.5.1PL0 Copyright (c) Steve Scherf et al.
# Submitted via: CDex 1.50Beta5
#
DISCID=17055204
DTITLE=エレファントカシマシ - Call and Response
DYEAR=1900
DGENRE=Rock
TTITLE0=コール アンド レスポンス
TTITLE1=武蔵野
TTITLE2=ガストロンジャー(LIVE)
TTITLE3=Soul rescue(LIVE)
EXTD=2000/04/26
EXTT0=
EXTT1=
EXTT2=
EXTT3=
PLAYORDER=
